<?xml version="1.0" encoding="UTF-8"?>
<svg version="1.1" xmlns="http://www.w3.org/2000/svg" width="500" height="499">
<path d="M0 0 C2.17002673 1.11480778 4.37645987 2.14709405 6.58203125 3.18945312 C19.0485565 9.44377407 30.81148277 17.19824784 41.70703125 25.87695312 C42.56941406 26.54726563 43.43179687 27.21757813 44.3203125 27.90820312 C52.90419707 34.72444332 60.79780265 42.29951491 68.70703125 49.87695312 C69.52300781 50.64394531 70.33898437 51.4109375 71.1796875 52.20117188 C72.70703125 53.87695313 72.70703125 53.87695313 72.70703125 55.87695312 C73.36703125 55.87695312 74.02703125 55.87695312 74.70703125 55.87695312 C74.70703125 56.53695312 74.70703125 57.19695312 74.70703125 57.87695312 C75.36703125 57.87695312 76.02703125 57.87695312 76.70703125 57.87695312 C78.43959906 59.86008629 80.04999813 61.84883691 81.64453125 63.93945312 C82.13179688 64.57214111 82.6190625 65.2048291 83.12109375 65.85668945 C84.14659034 67.19375642 85.16848509 68.53359256 86.18701172 69.87597656 C87.15990614 71.1567094 88.13765589 72.4337774 89.12158203 73.70605469 C116.38189961 108.95897695 132.08731187 151.45508991 137.40869141 195.42041016 C137.59432536 196.94892806 137.79009307 198.47629308 138.00146484 200.00146484 C138.94685146 207.26753329 138.9487388 214.55956442 138.95703125 221.87695312 C138.95837067 222.57782043 138.95971008 223.27868774 138.96109009 224.00079346 C138.95593138 236.54498485 137.99519162 248.78812841 136.10839844 261.20068359 C135.74364549 263.63281366 135.42460945 266.06548662 135.12109375 268.50585938 C133.30877284 282.0617765 129.00711157 294.93551119 124.70703125 307.87695312 C124.4558252 308.6478125 124.20461914 309.41867187 123.94580078 310.21289062 C117.99080604 328.27248253 108.97144408 345.75211243 97.90380859 361.19775391 C96.65521209 362.94966062 95.4379785 364.72025457 94.2265625 366.49804688 C89.29324236 373.72180182 84.11206481 380.47916437 78.29296875 387.00976562 C76.54449525 388.99523546 76.54449525 388.99523546 74.70703125 391.87695312 C74.04703125 391.87695312 73.38703125 391.87695312 72.70703125 391.87695312 C72.36671875 392.71226562 72.36671875 392.71226562 72.01953125 393.56445312 C70.33820253 396.5267942 68.14013584 398.49244121 65.70703125 400.87695312 C64.87945312 401.72773438 64.051875 402.57851563 63.19921875 403.45507812 C49.51839895 417.4217658 33.71750937 429.23341891 16.70703125 438.87695312 C15.61261719 439.53824219 14.51820313 440.19953125 13.390625 440.88085938 C2.46485134 447.38227685 -9.04631767 452.11955373 -20.83129883 456.83886719 C-23.47425876 457.90984001 -23.47425876 457.90984001 -26.59375 459.63476562 C-31.60743776 461.94207779 -36.90755622 461.6183216 -42.29296875 460.87695312 C-46.73368892 457.91647301 -47.92885447 454.91013847 -49.29296875 449.87695312 C-49.4698721 447.13889282 -49.5536441 444.50541465 -49.5324707 441.77050781 C-49.53448486 440.979245 -49.53649902 440.18798218 -49.53857422 439.3727417 C-49.54210803 437.66059467 -49.5413671 435.94843456 -49.53679848 434.23628998 C-49.53116718 431.50871501 -49.54043023 428.78155947 -49.55400085 426.05401611 C-49.59094079 418.30064138 -49.60977838 410.54740576 -49.59838867 402.79394531 C-49.59246669 398.04052891 -49.61114445 393.28769792 -49.64427757 388.53440094 C-49.65212796 386.74067067 -49.6510987 384.94687476 -49.64025307 383.1531601 C-49.5595144 369.18377195 -50.66529713 354.99868814 -58.29296875 342.87695312 C-58.29296875 342.21695312 -58.29296875 341.55695313 -58.29296875 340.87695312 C-58.95296875 340.87695312 -59.61296875 340.87695312 -60.29296875 340.87695312 C-62.91796875 338.56445312 -62.91796875 338.56445312 -65.29296875 335.87695312 C-65.29296875 334.88695312 -65.29296875 333.89695312 -65.29296875 332.87695312 C-64.15085937 332.74160156 -63.00875 332.60625 -61.83203125 332.46679688 C-37.61155002 329.35164693 -15.75854739 323.06518629 4.88671875 309.90820312 C6.70703125 308.87695312 6.70703125 308.87695312 8.70703125 308.87695312 C8.70703125 308.21695312 8.70703125 307.55695313 8.70703125 306.87695312 C10.4296875 305.43164063 10.4296875 305.43164063 12.76953125 303.75195312 C17.78198206 299.97479825 22.85568896 295.57963771 25.70703125 289.87695312 C26.36703125 289.87695312 27.02703125 289.87695312 27.70703125 289.87695312 C27.9803125 289.1628125 28.25359375 288.44867188 28.53515625 287.71289062 C29.70504511 284.88175958 31.04194832 282.21799939 32.45703125 279.50195312 C48.12882587 248.27331592 52.14002086 210.15345665 41.89453125 176.50195312 C38.28951265 166.48192044 32.63622165 155.47668869 24.89453125 148.00195312 C22.70703125 145.87695313 22.70703125 145.87695313 21.70703125 142.87695312 C22.41093099 141.20100135 23.12208725 139.52755534 23.87768555 137.87426758 C26.74058188 130.97955022 27.09442181 123.68944684 27.08203125 116.31445312 C27.08114502 115.35498779 27.08025879 114.39552246 27.0793457 113.40698242 C26.93650141 104.70943299 25.27424268 97.1674818 22.70703125 88.87695312 C22.11706126 86.71208416 21.53294958 84.54560254 20.95703125 82.37695312 C20.54218583 80.87644841 20.12631851 79.37622272 19.70703125 77.87695312 C1.8720617 78.21288577 -13.44550865 84.9847181 -28.83984375 93.51757812 C-36.70676185 97.87695312 -36.70676185 97.87695312 -39.29296875 97.87695312 C-39.29296875 98.53695312 -39.29296875 99.19695312 -39.29296875 99.87695312 C-44.02801385 102.90738199 -46.53819495 104.26499767 -52.29296875 103.87695312 C-53.97372637 103.49716655 -55.64126546 103.055432 -57.29296875 102.56445312 C-63.24661375 100.99417926 -69.20080849 100.07478634 -75.29296875 99.25195312 C-76.64455078 99.06765747 -76.64455078 99.06765747 -78.0234375 98.87963867 C-103.97246283 95.4838923 -143.93987958 91.70040854 -168.29296875 103.87695312 C-173.01464842 104.29549537 -175.3427539 103.61448707 -179.16796875 100.87695312 C-196.41574649 89.29262479 -219.26324461 77.51286291 -240.29296875 78.87695312 C-241.09263937 81.16608658 -241.88269004 83.4578805 -242.66796875 85.75195312 C-242.8896875 86.38359375 -243.11140625 87.01523438 -243.33984375 87.66601562 C-246.46280443 96.8511941 -247.63787024 105.62640664 -247.60546875 115.31445312 C-247.62158203 116.27416016 -247.63769531 117.23386719 -247.65429688 118.22265625 C-247.65900988 125.22147311 -246.33273756 131.21335083 -244.29296875 137.87695312 C-243.53489512 140.77054156 -243.29296875 142.8232548 -243.29296875 145.87695312 C-244.92675483 147.57586413 -246.59881882 149.23823058 -248.29296875 150.87695312 C-251.18258706 155.07497279 -253.72096314 159.47932785 -256.29296875 163.87695312 C-256.86789062 164.83601562 -257.4428125 165.79507813 -258.03515625 166.78320312 C-266.07119899 180.69635175 -267.68156723 196.47365865 -267.60546875 212.31445312 C-267.6012793 213.52512451 -267.59708984 214.7357959 -267.59277344 215.9831543 C-267.27915253 241.36142516 -262.12402115 264.32292577 -249.140625 286.24023438 C-248.29296875 287.87695312 -248.29296875 287.87695312 -248.29296875 289.87695312 C-247.63296875 289.87695312 -246.97296875 289.87695312 -246.29296875 289.87695312 C-244.91796875 291.52929688 -244.91796875 291.52929688 -243.29296875 293.81445312 C-239.05592541 299.44303069 -233.68746981 305.67970259 -227.29296875 308.87695312 C-227.29296875 309.53695313 -227.29296875 310.19695312 -227.29296875 310.87695312 C-226.225625 311.02390625 -226.225625 311.02390625 -225.13671875 311.17382812 C-221.85954647 311.98411798 -219.6435599 313.32575542 -216.79296875 315.12695312 C-200.44865619 324.84251907 -180.76119056 329.55674033 -162.01904297 331.93994141 C-160.10159401 332.19301632 -158.19509388 332.52684255 -156.29296875 332.87695312 C-155.96296875 333.53695313 -155.63296875 334.19695312 -155.29296875 334.87695312 C-156.90891707 336.91815101 -158.57860695 338.9176825 -160.29296875 340.87695312 C-160.95296875 340.87695312 -161.61296875 340.87695312 -162.29296875 340.87695312 C-162.66421875 342.02164063 -162.66421875 342.02164063 -163.04296875 343.18945312 C-164.38720079 347.15493763 -165.83242347 351.07364196 -167.3125 354.99023438 C-168.34347986 357.82923324 -168.34347986 357.82923324 -168.8671875 360.66992188 C-170.20507256 367.09366787 -170.20507256 367.09366787 -173.24609375 369.28320312 C-175.90098586 370.41367331 -178.49518381 371.17097001 -181.29296875 371.87695312 C-182.28941406 372.17214844 -183.28585938 372.46734375 -184.3125 372.77148438 C-199.44057575 376.85662444 -212.13939603 375.65014185 -225.66796875 367.93945312 C-229.39966906 365.59228494 -232.46857269 363.2662284 -235.29296875 359.87695312 C-235.29296875 359.21695312 -235.29296875 358.55695313 -235.29296875 357.87695312 C-235.95296875 357.87695312 -236.61296875 357.87695312 -237.29296875 357.87695312 C-238.51049805 356.33569336 -238.51049805 356.33569336 -239.8671875 354.18554688 C-240.37056641 353.40501953 -240.87394531 352.62449219 -241.39257812 351.8203125 C-242.43321388 350.1780792 -243.47233263 348.53488342 -244.50976562 346.890625 C-251.7304203 335.70819519 -261.48029768 326.7520982 -274.6640625 323.30273438 C-279.79610271 322.47154213 -286.51999462 321.49046606 -291.29296875 323.87695312 C-290.04827069 329.22915477 -287.69144579 331.81806022 -283.29296875 334.87695312 C-281.90078125 335.74320312 -281.90078125 335.74320312 -280.48046875 336.62695312 C-266.49231358 346.50094501 -259.19801458 362.03989697 -252.21484375 377.22070312 C-250.13689421 381.64046882 -248.00308484 384.57907216 -244.29296875 387.87695312 C-243.71289062 388.50601562 -243.1328125 389.13507813 -242.53515625 389.78320312 C-230.97594365 401.56217262 -212.10243183 402.85087638 -196.41577148 403.05541992 C-189.86500194 403.09883152 -189.86500194 403.09883152 -183.36328125 402.36523438 C-180.67716791 401.9380535 -178.30805891 401.82725992 -175.60107422 401.84643555 C-174.38966263 401.85304451 -174.38966263 401.85304451 -173.15377808 401.85978699 C-172.23267746 401.86828423 -172.23267746 401.86828423 -171.29296875 401.87695312 C-171.2422323 408.90613725 -171.20721979 415.93527408 -171.18310547 422.96459961 C-171.17305189 425.35556808 -171.15940711 427.74652428 -171.14208984 430.13745117 C-171.11781365 433.57538892 -171.1064791 437.01316401 -171.09765625 440.45117188 C-171.08733368 441.51905441 -171.07701111 442.58693695 -171.06637573 443.68717957 C-171.06622467 444.68783951 -171.06607361 445.68849945 -171.06591797 446.71948242 C-171.06147675 447.59662399 -171.05703552 448.47376556 -171.05245972 449.37748718 C-171.32169074 452.17544349 -172.13856677 454.32687296 -173.29296875 456.87695312 C-173.95296875 456.87695312 -174.61296875 456.87695312 -175.29296875 456.87695312 C-175.29296875 457.53695313 -175.29296875 458.19695312 -175.29296875 458.87695312 C-180.22945702 462.1679453 -185.52938782 461.49845164 -191.29296875 460.87695312 C-194.05576027 459.98371978 -196.45846965 458.82350076 -199.03515625 457.48632812 C-202.42570843 455.81137909 -205.85040434 454.4659968 -209.38085938 453.12084961 C-222.84471829 447.97327545 -234.9013123 441.24726143 -246.9609375 433.38476562 C-248.63626549 432.30155523 -250.35358782 431.28229641 -252.09375 430.30664062 C-252.81949219 429.83484375 -253.54523438 429.36304688 -254.29296875 428.87695312 C-254.29296875 428.21695312 -254.29296875 427.55695313 -254.29296875 426.87695312 C-255.35644531 426.52117187 -255.35644531 426.52117187 -256.44140625 426.15820312 C-259.77488159 424.66042243 -262.13436007 422.73880291 -264.91796875 420.37695312 C-267.6654825 418.05850317 -270.30042863 415.87197987 -273.29296875 413.87695312 C-273.29296875 413.21695312 -273.29296875 412.55695313 -273.29296875 411.87695312 C-274.94296875 411.21695312 -276.59296875 410.55695313 -278.29296875 409.87695312 C-278.29296875 409.21695312 -278.29296875 408.55695313 -278.29296875 407.87695312 C-278.95296875 407.87695312 -279.61296875 407.87695312 -280.29296875 407.87695312 C-281.625 406.48632813 -281.625 406.48632813 -283.10546875 404.62695312 C-285.59750632 401.60740395 -288.21577264 399.30631848 -291.29296875 396.87695312 C-295.29296875 392.33641258 -295.29296875 392.33641258 -295.29296875 389.87695312 C-295.95296875 389.87695312 -296.61296875 389.87695312 -297.29296875 389.87695312 C-297.29296875 389.21695312 -297.29296875 388.55695313 -297.29296875 387.87695312 C-297.95296875 387.87695312 -298.61296875 387.87695312 -299.29296875 387.87695312 C-299.29296875 387.21695312 -299.29296875 386.55695313 -299.29296875 385.87695312 C-299.95296875 385.87695312 -300.61296875 385.87695312 -301.29296875 385.87695312 C-302.67194918 384.17884559 -303.97256353 382.41659854 -305.23046875 380.62695312 C-305.92011719 379.65242188 -306.60976563 378.67789062 -307.3203125 377.67382812 C-307.97128906 376.75085938 -308.62226563 375.82789063 -309.29296875 374.87695312 C-309.87175781 374.13960938 -310.45054687 373.40226562 -311.046875 372.64257812 C-312.29296875 370.87695312 -312.29296875 370.87695312 -312.29296875 368.87695312 C-312.95296875 368.87695312 -313.61296875 368.87695312 -314.29296875 368.87695312 C-315.98694279 366.40644939 -317.56276134 363.93980137 -319.10546875 361.37695312 C-319.53150391 360.68085938 -319.95753906 359.98476563 -320.39648438 359.26757812 C-321.26486785 357.84873674 -322.12955546 356.4276274 -322.99072266 355.00439453 C-324.2544814 352.93982878 -325.55878834 350.90559657 -326.8671875 348.86914062 C-329.35795846 344.89289516 -331.35553259 340.76967414 -333.29296875 336.50195312 C-335.37335041 331.97334999 -337.46308119 327.50115348 -339.85546875 323.12695312 C-343.68154839 315.59112734 -345.95822022 307.31282108 -348.51464844 299.28271484 C-349.14102083 297.346619 -349.80823708 295.42376173 -350.48828125 293.50585938 C-354.33603377 282.34131762 -355.64370661 270.52272449 -357.29296875 258.87695312 C-357.41446289 258.08111816 -357.53595703 257.2852832 -357.66113281 256.46533203 C-361.73338411 229.54592755 -360.0721277 201.54492239 -355.29296875 174.87695312 C-355.15938965 174.06307129 -355.02581055 173.24918945 -354.88818359 172.41064453 C-351.31049542 150.81520143 -343.08042076 127.88444357 -332.29296875 108.87695312 C-331.57718357 107.55394573 -330.86372582 106.22967703 -330.15234375 104.90429688 C-325.06555754 95.53077992 -319.36879148 86.63634683 -313.29296875 77.87695312 C-312.63071289 76.89299561 -312.63071289 76.89299561 -311.95507812 75.88916016 C-310.785069 74.18253997 -309.54419167 72.52495647 -308.29296875 70.87695312 C-307.63296875 70.87695312 -306.97296875 70.87695312 -306.29296875 70.87695312 C-306.02484375 70.13445312 -305.75671875 69.39195313 -305.48046875 68.62695312 C-304.34020124 65.98633364 -303.19916569 64.02142468 -301.29296875 61.87695312 C-300.63296875 61.87695312 -299.97296875 61.87695312 -299.29296875 61.87695312 C-299.01984863 61.28309814 -298.74672852 60.68924316 -298.46533203 60.07739258 C-297.32901924 57.94461725 -296.17138227 56.43408888 -294.53515625 54.66992188 C-293.99552246 54.08621826 -293.45588867 53.50251465 -292.89990234 52.90112305 C-292.04259521 51.99197144 -292.04259521 51.99197144 -291.16796875 51.06445312 C-290.5848291 50.44223877 -290.00168945 49.82002441 -289.40087891 49.17895508 C-278.43721684 37.59170249 -278.43721684 37.59170249 -273.29296875 35.87695312 C-273.29296875 35.21695313 -273.29296875 34.55695313 -273.29296875 33.87695312 C-271.10229123 31.95603427 -268.90660085 30.15625008 -266.60546875 28.37695312 C-265.97962891 27.87808594 -265.35378906 27.37921875 -264.70898438 26.86523438 C-261.37025535 24.25718008 -258.38021766 22.18987438 -254.29296875 20.87695312 C-254.29296875 20.21695313 -254.29296875 19.55695312 -254.29296875 18.87695312 C-248.78785811 14.79185233 -242.68573718 11.4525353 -236.6640625 8.18945312 C-233.87707954 6.64674097 -231.15285586 5.01014182 -228.41796875 3.37695312 C-200.29339159 -13.04979106 -165.1708283 -22.88781893 -132.79296875 -25.24804688 C-131.6529541 -25.33151367 -130.51293945 -25.41498047 -129.33837891 -25.50097656 C-84.72259487 -28.57273913 -39.81819359 -20.73349004 0 0 Z " fill="#030303" transform="translate(360.29296875,31.123046875)"/>
<path d="M0 0 C0.86310791 0.1071936 0.86310791 0.1071936 1.74365234 0.21655273 C8.7236216 1.00737648 15.60586692 1.11793665 22.625 1.0625 C23.72457031 1.05798828 24.82414062 1.05347656 25.95703125 1.04882812 C28.63808003 1.03717139 31.31900932 1.02081017 34 1 C34 1.33 34 1.66 34 2 C22.64540925 4.99226862 10.94063823 5.60658452 0 1 C0 0.67 0 0.34 0 0 Z " fill="#676767" transform="translate(142,402)"/>
</svg>
